<?xml version="1.0" encoding="utf-8" ?>
<svg baseProfile="full" height="78mm" version="1.1" viewBox="0,0,200,78" width="200mm" xmlns="http://www.w3.org/2000/svg" xmlns:ev="http://www.w3.org/2001/xml-events" xmlns:xlink="http://www.w3.org/1999/xlink"><defs /><rect fill="#222222" height="78" width="200" x="0" y="0" /><text fill="#FFFFFF" style="font-size:12px; font-family:Arial; font-weight:bold;" x="10" y="20">Quard Duolingo</text><text alignment-baseline="hanging" fill="#FFFFFF" style="font-size:10.0px; font-family:Arial;" x="10" y="30">2022</text><text alignment-baseline="hanging" fill="#FFFFFF" style="font-size:4.125px; font-family:Arial;" x="175" y="35">40018 XP</text><text fill="#FFFFFF" style="font-size:2.5px; font-family:Arial" x="10.0" y="44">Jan</text><text fill="#FFFFFF" style="font-size:2.5px; font-family:Arial" x="25.5" y="44">Feb</text><text fill="#FFFFFF" style="font-size:2.5px; font-family:Arial" x="41.0" y="44">Mar</text><text fill="#FFFFFF" style="font-size:2.5px; font-family:Arial" x="56.5" y="44">Apr</text><text fill="#FFFFFF" style="font-size:2.5px; font-family:Arial" x="72.0" y="44">May</text><text fill="#FFFFFF" style="font-size:2.5px; font-family:Arial" x="87.5" y="44">Jun</text><text fill="#FFFFFF" style="font-size:2.5px; font-family:Arial" x="103.0" y="44">Jul</text><text fill="#FFFFFF" style="font-size:2.5px; font-family:Arial" x="118.5" y="44">Aug</text><text fill="#FFFFFF" style="font-size:2.5px; font-family:Arial" x="134.0" y="44">Sep</text><text fill="#FFFFFF" style="font-size:2.5px; font-family:Arial" x="149.5" y="44">Oct</text><text fill="#FFFFFF" style="font-size:2.5px; font-family:Arial" x="165.0" y="44">Nov</text><text fill="#FFFFFF" style="font-size:2.5px; font-family:Arial" x="180.5" y="44">Dec</text><rect fill="#444444" height="2.6" width="2.6" x="10.0" y="45.5"><title>2021-12-27</title></rect><rect fill="#444444" height="2.6" width="2.6" x="10.0" y="49.0"><title>2021-12-28</title></rect><rect fill="#444444" height="2.6" width="2.6" x="10.0" y="52.5"><title>2021-12-29</title></rect><rect fill="#444444" height="2.6" width="2.6" x="10.0" y="56.0"><title>2021-12-30</title></rect><rect fill="#444444" height="2.6" width="2.6" x="10.0" y="59.5"><title>2021-12-31</title></rect><rect fill="#444444" height="2.6" width="2.6" x="10.0" y="63.0"><title>2022-01-01</title></rect><rect fill="#444444" height="2.6" width="2.6" x="10.0" y="66.5"><title>2022-01-02</title></rect><rect fill="#444444" height="2.6" width="2.6" x="13.5" y="45.5"><title>2022-01-03</title></rect><rect fill="#444444" height="2.6" width="2.6" x="13.5" y="49.0"><title>2022-01-04</title></rect><rect fill="#444444" height="2.6" width="2.6" x="13.5" y="52.5"><title>2022-01-05</title></rect><rect fill="#444444" height="2.6" width="2.6" x="13.5" y="56.0"><title>2022-01-06</title></rect><rect fill="#444444" height="2.6" width="2.6" x="13.5" y="59.5"><title>2022-01-07</title></rect><rect fill="#444444" height="2.6" width="2.6" x="13.5" y="63.0"><title>2022-01-08</title></rect><rect fill="#444444" height="2.6" width="2.6" x="13.5" y="66.5"><title>2022-01-09</title></rect><rect fill="#444444" height="2.6" width="2.6" x="17.0" y="45.5"><title>2022-01-10</title></rect><rect fill="#444444" height="2.6" width="2.6" x="17.0" y="49.0"><title>2022-01-11</title></rect><rect fill="#444444" height="2.6" width="2.6" x="17.0" y="52.5"><title>2022-01-12</title></rect><rect fill="#444444" height="2.6" width="2.6" x="17.0" y="56.0"><title>2022-01-13</title></rect><rect fill="#444444" height="2.6" width="2.6" x="17.0" y="59.5"><title>2022-01-14</title></rect><rect fill="#444444" height="2.6" width="2.6" x="17.0" y="63.0"><title>2022-01-15</title></rect><rect fill="#444444" height="2.6" width="2.6" x="17.0" y="66.5"><title>2022-01-16</title></rect><rect fill="#444444" height="2.6" width="2.6" x="20.5" y="45.5"><title>2022-01-17</title></rect><rect fill="#444444" height="2.6" width="2.6" x="20.5" y="49.0"><title>2022-01-18</title></rect><rect fill="#444444" height="2.6" width="2.6" x="20.5" y="52.5"><title>2022-01-19</title></rect><rect fill="#444444" height="2.6" width="2.6" x="20.5" y="56.0"><title>2022-01-20</title></rect><rect fill="#444444" height="2.6" width="2.6" x="20.5" y="59.5"><title>2022-01-21</title></rect><rect fill="#444444" height="2.6" width="2.6" x="20.5" y="63.0"><title>2022-01-22</title></rect><rect fill="#444444" height="2.6" width="2.6" x="20.5" y="66.5"><title>2022-01-23</title></rect><rect fill="#444444" height="2.6" width="2.6" x="24.0" y="45.5"><title>2022-01-24</title></rect><rect fill="#444444" height="2.6" width="2.6" x="24.0" y="49.0"><title>2022-01-25</title></rect><rect fill="#444444" height="2.6" width="2.6" x="24.0" y="52.5"><title>2022-01-26</title></rect><rect fill="#444444" height="2.6" width="2.6" x="24.0" y="56.0"><title>2022-01-27</title></rect><rect fill="#444444" height="2.6" width="2.6" x="24.0" y="59.5"><title>2022-01-28</title></rect><rect fill="#444444" height="2.6" width="2.6" x="24.0" y="63.0"><title>2022-01-29</title></rect><rect fill="#444444" height="2.6" width="2.6" x="24.0" y="66.5"><title>2022-01-30</title></rect><rect fill="#444444" height="2.6" width="2.6" x="27.5" y="45.5"><title>2022-01-31</title></rect><rect fill="#444444" height="2.6" width="2.6" x="27.5" y="49.0"><title>2022-02-01</title></rect><rect fill="#444444" height="2.6" width="2.6" x="27.5" y="52.5"><title>2022-02-02</title></rect><rect fill="#444444" height="2.6" width="2.6" x="27.5" y="56.0"><title>2022-02-03</title></rect><rect fill="#444444" height="2.6" width="2.6" x="27.5" y="59.5"><title>2022-02-04</title></rect><rect fill="#444444" height="2.6" width="2.6" x="27.5" y="63.0"><title>2022-02-05</title></rect><rect fill="#444444" height="2.6" width="2.6" x="27.5" y="66.5"><title>2022-02-06</title></rect><rect fill="#444444" height="2.6" width="2.6" x="31.0" y="45.5"><title>2022-02-07</title></rect><rect fill="#444444" height="2.6" width="2.6" x="31.0" y="49.0"><title>2022-02-08</title></rect><rect fill="#444444" height="2.6" width="2.6" x="31.0" y="52.5"><title>2022-02-09</title></rect><rect fill="#444444" height="2.6" width="2.6" x="31.0" y="56.0"><title>2022-02-10</title></rect><rect fill="#444444" height="2.6" width="2.6" x="31.0" y="59.5"><title>2022-02-11</title></rect><rect fill="#444444" height="2.6" width="2.6" x="31.0" y="63.0"><title>2022-02-12</title></rect><rect fill="#444444" height="2.6" width="2.6" x="31.0" y="66.5"><title>2022-02-13</title></rect><rect fill="#444444" height="2.6" width="2.6" x="34.5" y="45.5"><title>2022-02-14</title></rect><rect fill="#444444" height="2.6" width="2.6" x="34.5" y="49.0"><title>2022-02-15</title></rect><rect fill="#444444" height="2.6" width="2.6" x="34.5" y="52.5"><title>2022-02-16</title></rect><rect fill="#444444" height="2.6" width="2.6" x="34.5" y="56.0"><title>2022-02-17</title></rect><rect fill="#444444" height="2.6" width="2.6" x="34.5" y="59.5"><title>2022-02-18</title></rect><rect fill="#444444" height="2.6" width="2.6" x="34.5" y="63.0"><title>2022-02-19</title></rect><rect fill="#444444" height="2.6" width="2.6" x="34.5" y="66.5"><title>2022-02-20</title></rect><rect fill="#444444" height="2.6" width="2.6" x="38.0" y="45.5"><title>2022-02-21</title></rect><rect fill="#444444" height="2.6" width="2.6" x="38.0" y="49.0"><title>2022-02-22</title></rect><rect fill="#444444" height="2.6" width="2.6" x="38.0" y="52.5"><title>2022-02-23</title></rect><rect fill="#444444" height="2.6" width="2.6" x="38.0" y="56.0"><title>2022-02-24</title></rect><rect fill="#444444" height="2.6" width="2.6" x="38.0" y="59.5"><title>2022-02-25</title></rect><rect fill="#444444" height="2.6" width="2.6" x="38.0" y="63.0"><title>2022-02-26</title></rect><rect fill="#444444" height="2.6" width="2.6" x="38.0" y="66.5"><title>2022-02-27</title></rect><rect fill="#444444" height="2.6" width="2.6" x="41.5" y="45.5"><title>2022-02-28</title></rect><rect fill="#444444" height="2.6" width="2.6" x="41.5" y="49.0"><title>2022-03-01</title></rect><rect fill="#444444" height="2.6" width="2.6" x="41.5" y="52.5"><title>2022-03-02</title></rect><rect fill="#444444" height="2.6" width="2.6" x="41.5" y="56.0"><title>2022-03-03</title></rect><rect fill="#444444" height="2.6" width="2.6" x="41.5" y="59.5"><title>2022-03-04</title></rect><rect fill="#444444" height="2.6" width="2.6" x="41.5" y="63.0"><title>2022-03-05</title></rect><rect fill="#444444" height="2.6" width="2.6" x="41.5" y="66.5"><title>2022-03-06</title></rect><rect fill="#444444" height="2.6" width="2.6" x="45.0" y="45.5"><title>2022-03-07</title></rect><rect fill="#444444" height="2.6" width="2.6" x="45.0" y="49.0"><title>2022-03-08</title></rect><rect fill="#444444" height="2.6" width="2.6" x="45.0" y="52.5"><title>2022-03-09</title></rect><rect fill="#444444" height="2.6" width="2.6" x="45.0" y="56.0"><title>2022-03-10</title></rect><rect fill="#444444" height="2.6" width="2.6" x="45.0" y="59.5"><title>2022-03-11</title></rect><rect fill="#444444" height="2.6" width="2.6" x="45.0" y="63.0"><title>2022-03-12</title></rect><rect fill="#444444" height="2.6" width="2.6" x="45.0" y="66.5"><title>2022-03-13</title></rect><rect fill="#444444" height="2.6" width="2.6" x="48.5" y="45.5"><title>2022-03-14</title></rect><rect fill="#444444" height="2.6" width="2.6" x="48.5" y="49.0"><title>2022-03-15</title></rect><rect fill="#444444" height="2.6" width="2.6" x="48.5" y="52.5"><title>2022-03-16</title></rect><rect fill="#444444" height="2.6" width="2.6" x="48.5" y="56.0"><title>2022-03-17</title></rect><rect fill="#444444" height="2.6" width="2.6" x="48.5" y="59.5"><title>2022-03-18</title></rect><rect fill="#444444" height="2.6" width="2.6" x="48.5" y="63.0"><title>2022-03-19</title></rect><rect fill="#444444" height="2.6" width="2.6" x="48.5" y="66.5"><title>2022-03-20</title></rect><rect fill="#444444" height="2.6" width="2.6" x="52.0" y="45.5"><title>2022-03-21</title></rect><rect fill="#444444" height="2.6" width="2.6" x="52.0" y="49.0"><title>2022-03-22</title></rect><rect fill="#444444" height="2.6" width="2.6" x="52.0" y="52.5"><title>2022-03-23</title></rect><rect fill="#444444" height="2.6" width="2.6" x="52.0" y="56.0"><title>2022-03-24</title></rect><rect fill="#9fcf00" height="2.6" width="2.6" x="52.0" y="59.5"><title>2022-03-25 196 XP</title></rect><rect fill="#444444" height="2.6" width="2.6" x="52.0" y="63.0"><title>2022-03-26</title></rect><rect fill="#ffd300" height="2.6" width="2.6" x="52.0" y="66.5"><title>2022-03-27 275 XP</title></rect><rect fill="red" height="2.6" width="2.6" x="55.5" y="45.5"><title>2022-03-28 1519 XP</title></rect><rect fill="#ffb400" height="2.6" width="2.6" x="55.5" y="49.0"><title>2022-03-29 457 XP</title></rect><rect fill="#8ccb00" height="2.6" width="2.6" x="55.5" y="52.5"><title>2022-03-30 108 XP</title></rect><rect fill="#96cd00" height="2.6" width="2.6" x="55.5" y="56.0"><title>2022-03-31 156 XP</title></rect><rect fill="#ffc400" height="2.6" width="2.6" x="55.5" y="59.5"><title>2022-04-01 362 XP</title></rect><rect fill="#88cb00" height="2.6" width="2.6" x="55.5" y="63.0"><title>2022-04-02 90 XP</title></rect><rect fill="#96cd00" height="2.6" width="2.6" x="55.5" y="66.5"><title>2022-04-03 155 XP</title></rect><rect fill="#96cd00" height="2.6" width="2.6" x="59.0" y="45.5"><title>2022-04-04 156 XP</title></rect><rect fill="#99ce00" height="2.6" width="2.6" x="59.0" y="49.0"><title>2022-04-05 169 XP</title></rect><rect fill="#78c800" height="2.6" width="2.6" x="59.0" y="52.5"><title>2022-04-06 15 XP</title></rect><rect fill="#ffd300" height="2.6" width="2.6" x="59.0" y="56.0"><title>2022-04-07 277 XP</title></rect><rect fill="#91cc00" height="2.6" width="2.6" x="59.0" y="59.5"><title>2022-04-08 131 XP</title></rect><rect fill="#7ec900" height="2.6" width="2.6" x="59.0" y="63.0"><title>2022-04-09 43 XP</title></rect><rect fill="#a2cf00" height="2.6" width="2.6" x="59.0" y="66.5"><title>2022-04-10 211 XP</title></rect><rect fill="#93cd00" height="2.6" width="2.6" x="62.5" y="45.5"><title>2022-04-11 143 XP</title></rect><rect fill="#88cb00" height="2.6" width="2.6" x="62.5" y="49.0"><title>2022-04-12 91 XP</title></rect><rect fill="#91cc00" height="2.6" width="2.6" x="62.5" y="52.5"><title>2022-04-13 132 XP</title></rect><rect fill="#8dcc00" height="2.6" width="2.6" x="62.5" y="56.0"><title>2022-04-14 112 XP</title></rect><rect fill="#7ac800" height="2.6" width="2.6" x="62.5" y="59.5"><title>2022-04-15 24 XP</title></rect><rect fill="#90cc00" height="2.6" width="2.6" x="62.5" y="63.0"><title>2022-04-16 129 XP</title></rect><rect fill="#85ca00" height="2.6" width="2.6" x="62.5" y="66.5"><title>2022-04-17 79 XP</title></rect><rect fill="#93cd00" height="2.6" width="2.6" x="66.0" y="45.5"><title>2022-04-18 141 XP</title></rect><rect fill="red" height="2.6" width="2.6" x="66.0" y="49.0"><title>2022-04-19 1344 XP</title></rect><rect fill="#ffc800" height="2.6" width="2.6" x="66.0" y="52.5"><title>2022-04-20 338 XP</title></rect><rect fill="#ffbb00" height="2.6" width="2.6" x="66.0" y="56.0"><title>2022-04-21 417 XP</title></rect><rect fill="red" height="2.6" width="2.6" x="66.0" y="59.5"><title>2022-04-22 675 XP</title></rect><rect fill="#ffae00" height="2.6" width="2.6" x="66.0" y="63.0"><title>2022-04-23 494 XP</title></rect><rect fill="#96cd00" height="2.6" width="2.6" x="66.0" y="66.5"><title>2022-04-24 157 XP</title></rect><rect fill="red" height="2.6" width="2.6" x="69.5" y="45.5"><title>2022-04-25 1228 XP</title></rect><rect fill="#ffad00" height="2.6" width="2.6" x="69.5" y="49.0"><title>2022-04-26 500 XP</title></rect><rect fill="#ffb100" height="2.6" width="2.6" x="69.5" y="52.5"><title>2022-04-27 474 XP</title></rect><rect fill="red" height="2.6" width="2.6" x="69.5" y="56.0"><title>2022-04-28 728 XP</title></rect><rect fill="#ffaf00" height="2.6" width="2.6" x="69.5" y="59.5"><title>2022-04-29 486 XP</title></rect><rect fill="red" height="2.6" width="2.6" x="69.5" y="63.0"><title>2022-04-30 833 XP</title></rect><rect fill="#ffa900" height="2.6" width="2.6" x="69.5" y="66.5"><title>2022-05-01 520 XP</title></rect><rect fill="red" height="2.6" width="2.6" x="73.0" y="45.5"><title>2022-05-02 667 XP</title></rect><rect fill="red" height="2.6" width="2.6" x="73.0" y="49.0"><title>2022-05-03 788 XP</title></rect><rect fill="#ffd000" height="2.6" width="2.6" x="73.0" y="52.5"><title>2022-05-04 295 XP</title></rect><rect fill="#ffb100" height="2.6" width="2.6" x="73.0" y="56.0"><title>2022-05-05 474 XP</title></rect><rect fill="#92cc00" height="2.6" width="2.6" x="73.0" y="59.5"><title>2022-05-06 138 XP</title></rect><rect fill="#acd100" height="2.6" width="2.6" x="73.0" y="63.0"><title>2022-05-07 254 XP</title></rect><rect fill="#ffb300" height="2.6" width="2.6" x="73.0" y="66.5"><title>2022-05-08 466 XP</title></rect><rect fill="red" height="2.6" width="2.6" x="76.5" y="45.5"><title>2022-05-09 671 XP</title></rect><rect fill="red" height="2.6" width="2.6" x="76.5" y="49.0"><title>2022-05-10 595 XP</title></rect><rect fill="#ffb400" height="2.6" width="2.6" x="76.5" y="52.5"><title>2022-05-11 460 XP</title></rect><rect fill="red" height="2.6" width="2.6" x="76.5" y="56.0"><title>2022-05-12 587 XP</title></rect><rect fill="red" height="2.6" width="2.6" x="76.5" y="59.5"><title>2022-05-13 662 XP</title></rect><rect fill="#a8d000" height="2.6" width="2.6" x="76.5" y="63.0"><title>2022-05-14 239 XP</title></rect><rect fill="#ffa600" height="2.6" width="2.6" x="76.5" y="66.5"><title>2022-05-15 539 XP</title></rect><rect fill="#ffaf00" height="2.6" width="2.6" x="80.0" y="45.5"><title>2022-05-16 485 XP</title></rect><rect fill="#ffca00" height="2.6" width="2.6" x="80.0" y="49.0"><title>2022-05-17 327 XP</title></rect><rect fill="red" height="2.6" width="2.6" x="80.0" y="52.5"><title>2022-05-18 846 XP</title></rect><rect fill="#b0d100" height="2.6" width="2.6" x="80.0" y="56.0"><title>2022-05-19 274 XP</title></rect><rect fill="#ffcb00" height="2.6" width="2.6" x="80.0" y="59.5"><title>2022-05-20 323 XP</title></rect><rect fill="red" height="2.6" width="2.6" x="80.0" y="63.0"><title>2022-05-21 749 XP</title></rect><rect fill="#aed100" height="2.6" width="2.6" x="80.0" y="66.5"><title>2022-05-22 264 XP</title></rect><rect fill="red" height="2.6" width="2.6" x="83.5" y="45.5"><title>2022-05-23 812 XP</title></rect><rect fill="#a9d000" height="2.6" width="2.6" x="83.5" y="49.0"><title>2022-05-24 244 XP</title></rect><rect fill="red" height="2.6" width="2.6" x="83.5" y="52.5"><title>2022-05-25 931 XP</title></rect><rect fill="red" height="2.6" width="2.6" x="83.5" y="56.0"><title>2022-05-26 889 XP</title></rect><rect fill="#ffc900" height="2.6" width="2.6" x="83.5" y="59.5"><title>2022-05-27 332 XP</title></rect><rect fill="red" height="2.6" width="2.6" x="83.5" y="63.0"><title>2022-05-28 666 XP</title></rect><rect fill="#acd100" height="2.6" width="2.6" x="83.5" y="66.5"><title>2022-05-29 256 XP</title></rect><rect fill="#ffcc00" height="2.6" width="2.6" x="87.0" y="45.5"><title>2022-05-30 316 XP</title></rect><rect fill="#ffb400" height="2.6" width="2.6" x="87.0" y="49.0"><title>2022-05-31 460 XP</title></rect><rect fill="#9ecf00" height="2.6" width="2.6" x="87.0" y="52.5"><title>2022-06-01 194 XP</title></rect><rect fill="#ffa900" height="2.6" width="2.6" x="87.0" y="56.0"><title>2022-06-02 523 XP</title></rect><rect fill="#ffbc00" height="2.6" width="2.6" x="87.0" y="59.5"><title>2022-06-03 412 XP</title></rect><rect fill="#93cd00" height="2.6" width="2.6" x="87.0" y="63.0"><title>2022-06-04 144 XP</title></rect><rect fill="red" height="2.6" width="2.6" x="87.0" y="66.5"><title>2022-06-05 634 XP</title></rect><rect fill="#ffab00" height="2.6" width="2.6" x="90.5" y="45.5"><title>2022-06-06 512 XP</title></rect><rect fill="red" height="2.6" width="2.6" x="90.5" y="49.0"><title>2022-06-07 563 XP</title></rect><rect fill="#ffc800" height="2.6" width="2.6" x="90.5" y="52.5"><title>2022-06-08 339 XP</title></rect><rect fill="#80c900" height="2.6" width="2.6" x="90.5" y="56.0"><title>2022-06-09 54 XP</title></rect><rect fill="#9fcf00" height="2.6" width="2.6" x="90.5" y="59.5"><title>2022-06-10 196 XP</title></rect><rect fill="red" height="2.6" width="2.6" x="90.5" y="63.0"><title>2022-06-11 792 XP</title></rect><rect fill="#ffcf00" height="2.6" width="2.6" x="90.5" y="66.5"><title>2022-06-12 298 XP</title></rect><rect fill="#aad000" height="2.6" width="2.6" x="94.0" y="45.5"><title>2022-06-13 247 XP</title></rect><rect fill="#a7d000" height="2.6" width="2.6" x="94.0" y="49.0"><title>2022-06-14 233 XP</title></rect><rect fill="#ffd200" height="2.6" width="2.6" x="94.0" y="52.5"><title>2022-06-15 281 XP</title></rect><rect fill="#7cc900" height="2.6" width="2.6" x="94.0" y="56.0"><title>2022-06-16 35 XP</title></rect><rect fill="#88cb00" height="2.6" width="2.6" x="94.0" y="59.5"><title>2022-06-17 92 XP</title></rect><rect fill="#add100" height="2.6" width="2.6" x="94.0" y="63.0"><title>2022-06-18 261 XP</title></rect><rect fill="#ffa900" height="2.6" width="2.6" x="94.0" y="66.5"><title>2022-06-19 521 XP</title></rect><rect fill="#81ca00" height="2.6" width="2.6" x="97.5" y="45.5"><title>2022-06-20 59 XP</title></rect><rect fill="#84ca00" height="2.6" width="2.6" x="97.5" y="49.0"><title>2022-06-21 70 XP</title></rect><rect fill="#8dcc00" height="2.6" width="2.6" x="97.5" y="52.5"><title>2022-06-22 116 XP</title></rect><rect fill="#8acb00" height="2.6" width="2.6" x="97.5" y="56.0"><title>2022-06-23 102 XP</title></rect><rect fill="#ffca00" height="2.6" width="2.6" x="97.5" y="59.5"><title>2022-06-24 330 XP</title></rect><rect fill="#84ca00" height="2.6" width="2.6" x="97.5" y="63.0"><title>2022-06-25 74 XP</title></rect><rect fill="#89cb00" height="2.6" width="2.6" x="97.5" y="66.5"><title>2022-06-26 97 XP</title></rect><rect fill="#8acb00" height="2.6" width="2.6" x="101.0" y="45.5"><title>2022-06-27 102 XP</title></rect><rect fill="#84ca00" height="2.6" width="2.6" x="101.0" y="49.0"><title>2022-06-28 70 XP</title></rect><rect fill="#84ca00" height="2.6" width="2.6" x="101.0" y="52.5"><title>2022-06-29 73 XP</title></rect><rect fill="#84ca00" height="2.6" width="2.6" x="101.0" y="56.0"><title>2022-06-30 73 XP</title></rect><rect fill="#83ca00" height="2.6" width="2.6" x="101.0" y="59.5"><title>2022-07-01 69 XP</title></rect><rect fill="#ffc600" height="2.6" width="2.6" x="101.0" y="63.0"><title>2022-07-02 354 XP</title></rect><rect fill="#9bce00" height="2.6" width="2.6" x="101.0" y="66.5"><title>2022-07-03 181 XP</title></rect><rect fill="#96cd00" height="2.6" width="2.6" x="104.5" y="45.5"><title>2022-07-04 155 XP</title></rect><rect fill="#87cb00" height="2.6" width="2.6" x="104.5" y="49.0"><title>2022-07-05 88 XP</title></rect><rect fill="#87cb00" height="2.6" width="2.6" x="104.5" y="52.5"><title>2022-07-06 88 XP</title></rect><rect fill="#83ca00" height="2.6" width="2.6" x="104.5" y="56.0"><title>2022-07-07 68 XP</title></rect><rect fill="#8bcb00" height="2.6" width="2.6" x="104.5" y="59.5"><title>2022-07-08 105 XP</title></rect><rect fill="#83ca00" height="2.6" width="2.6" x="104.5" y="63.0"><title>2022-07-09 67 XP</title></rect><rect fill="#ffbb00" height="2.6" width="2.6" x="104.5" y="66.5"><title>2022-07-10 418 XP</title></rect><rect fill="#93cd00" height="2.6" width="2.6" x="108.0" y="45.5"><title>2022-07-11 141 XP</title></rect><rect fill="#8acb00" height="2.6" width="2.6" x="108.0" y="49.0"><title>2022-07-12 98 XP</title></rect><rect fill="#82ca00" height="2.6" width="2.6" x="108.0" y="52.5"><title>2022-07-13 63 XP</title></rect><rect fill="#80c900" height="2.6" width="2.6" x="108.0" y="56.0"><title>2022-07-14 55 XP</title></rect><rect fill="#ffbb00" height="2.6" width="2.6" x="108.0" y="59.5"><title>2022-07-15 418 XP</title></rect><rect fill="#ffbe00" height="2.6" width="2.6" x="108.0" y="63.0"><title>2022-07-16 400 XP</title></rect><rect fill="#a8d000" height="2.6" width="2.6" x="108.0" y="66.5"><title>2022-07-17 239 XP</title></rect><rect fill="#ffa700" height="2.6" width="2.6" x="111.5" y="45.5"><title>2022-07-18 535 XP</title></rect><rect fill="#8ecc00" height="2.6" width="2.6" x="111.5" y="49.0"><title>2022-07-19 119 XP</title></rect><rect fill="#78c800" height="2.6" width="2.6" x="111.5" y="52.5"><title>2022-07-20 15 XP</title></rect><rect fill="#81ca00" height="2.6" width="2.6" x="111.5" y="56.0"><title>2022-07-21 60 XP</title></rect><rect fill="#90cc00" height="2.6" width="2.6" x="111.5" y="59.5"><title>2022-07-22 126 XP</title></rect><rect fill="#8ecc00" height="2.6" width="2.6" x="111.5" y="63.0"><title>2022-07-23 120 XP</title></rect><rect fill="#78c800" height="2.6" width="2.6" x="111.5" y="66.5"><title>2022-07-24 15 XP</title></rect><rect fill="#81ca00" height="2.6" width="2.6" x="115.0" y="45.5"><title>2022-07-25 60 XP</title></rect><rect fill="#7fc900" height="2.6" width="2.6" x="115.0" y="49.0"><title>2022-07-26 50 XP</title></rect><rect fill="#79c800" height="2.6" width="2.6" x="115.0" y="52.5"><title>2022-07-27 20 XP</title></rect><rect fill="#79c800" height="2.6" width="2.6" x="115.0" y="56.0"><title>2022-07-28 20 XP</title></rect><rect fill="#444444" height="2.6" width="2.6" x="115.0" y="59.5"><title>2022-07-29</title></rect><rect fill="#444444" height="2.6" width="2.6" x="115.0" y="63.0"><title>2022-07-30</title></rect><rect fill="#444444" height="2.6" width="2.6" x="115.0" y="66.5"><title>2022-07-31</title></rect><rect fill="#444444" height="2.6" width="2.6" x="118.5" y="45.5"><title>2022-08-01</title></rect><rect fill="#444444" height="2.6" width="2.6" x="118.5" y="49.0"><title>2022-08-02</title></rect><rect fill="#444444" height="2.6" width="2.6" x="118.5" y="52.5"><title>2022-08-03</title></rect><rect fill="#444444" height="2.6" width="2.6" x="118.5" y="56.0"><title>2022-08-04</title></rect><rect fill="#444444" height="2.6" width="2.6" x="118.5" y="59.5"><title>2022-08-05</title></rect><rect fill="#444444" height="2.6" width="2.6" x="118.5" y="63.0"><title>2022-08-06</title></rect><rect fill="#444444" height="2.6" width="2.6" x="118.5" y="66.5"><title>2022-08-07</title></rect><rect fill="#444444" height="2.6" width="2.6" x="122.0" y="45.5"><title>2022-08-08</title></rect><rect fill="#444444" height="2.6" width="2.6" x="122.0" y="49.0"><title>2022-08-09</title></rect><rect fill="#444444" height="2.6" width="2.6" x="122.0" y="52.5"><title>2022-08-10</title></rect><rect fill="#444444" height="2.6" width="2.6" x="122.0" y="56.0"><title>2022-08-11</title></rect><rect fill="#444444" height="2.6" width="2.6" x="122.0" y="59.5"><title>2022-08-12</title></rect><rect fill="#444444" height="2.6" width="2.6" x="122.0" y="63.0"><title>2022-08-13</title></rect><rect fill="#444444" height="2.6" width="2.6" x="122.0" y="66.5"><title>2022-08-14</title></rect><rect fill="#444444" height="2.6" width="2.6" x="125.5" y="45.5"><title>2022-08-15</title></rect><rect fill="#444444" height="2.6" width="2.6" x="125.5" y="49.0"><title>2022-08-16</title></rect><rect fill="#444444" height="2.6" width="2.6" x="125.5" y="52.5"><title>2022-08-17</title></rect><rect fill="#444444" height="2.6" width="2.6" x="125.5" y="56.0"><title>2022-08-18</title></rect><rect fill="#444444" height="2.6" width="2.6" x="125.5" y="59.5"><title>2022-08-19</title></rect><rect fill="#444444" height="2.6" width="2.6" x="125.5" y="63.0"><title>2022-08-20</title></rect><rect fill="#444444" height="2.6" width="2.6" x="125.5" y="66.5"><title>2022-08-21</title></rect><rect fill="#444444" height="2.6" width="2.6" x="129.0" y="45.5"><title>2022-08-22</title></rect><rect fill="#444444" height="2.6" width="2.6" x="129.0" y="49.0"><title>2022-08-23</title></rect><rect fill="#444444" height="2.6" width="2.6" x="129.0" y="52.5"><title>2022-08-24</title></rect><rect fill="#444444" height="2.6" width="2.6" x="129.0" y="56.0"><title>2022-08-25</title></rect><rect fill="#444444" height="2.6" width="2.6" x="129.0" y="59.5"><title>2022-08-26</title></rect><rect fill="#444444" height="2.6" width="2.6" x="129.0" y="63.0"><title>2022-08-27</title></rect><rect fill="#444444" height="2.6" width="2.6" x="129.0" y="66.5"><title>2022-08-28</title></rect><rect fill="#444444" height="2.6" width="2.6" x="132.5" y="45.5"><title>2022-08-29</title></rect><rect fill="#444444" height="2.6" width="2.6" x="132.5" y="49.0"><title>2022-08-30</title></rect><rect fill="#444444" height="2.6" width="2.6" x="132.5" y="52.5"><title>2022-08-31</title></rect><rect fill="#444444" height="2.6" width="2.6" x="132.5" y="56.0"><title>2022-09-01</title></rect><rect fill="#444444" height="2.6" width="2.6" x="132.5" y="59.5"><title>2022-09-02</title></rect><rect fill="#444444" height="2.6" width="2.6" x="132.5" y="63.0"><title>2022-09-03</title></rect><rect fill="#444444" height="2.6" width="2.6" x="132.5" y="66.5"><title>2022-09-04</title></rect><rect fill="#444444" height="2.6" width="2.6" x="136.0" y="45.5"><title>2022-09-05</title></rect><rect fill="#444444" height="2.6" width="2.6" x="136.0" y="49.0"><title>2022-09-06</title></rect><rect fill="#444444" height="2.6" width="2.6" x="136.0" y="52.5"><title>2022-09-07</title></rect><rect fill="#444444" height="2.6" width="2.6" x="136.0" y="56.0"><title>2022-09-08</title></rect><rect fill="#444444" height="2.6" width="2.6" x="136.0" y="59.5"><title>2022-09-09</title></rect><rect fill="#444444" height="2.6" width="2.6" x="136.0" y="63.0"><title>2022-09-10</title></rect><rect fill="#444444" height="2.6" width="2.6" x="136.0" y="66.5"><title>2022-09-11</title></rect><rect fill="#444444" height="2.6" width="2.6" x="139.5" y="45.5"><title>2022-09-12</title></rect><rect fill="#444444" height="2.6" width="2.6" x="139.5" y="49.0"><title>2022-09-13</title></rect><rect fill="#444444" height="2.6" width="2.6" x="139.5" y="52.5"><title>2022-09-14</title></rect><rect fill="#444444" height="2.6" width="2.6" x="139.5" y="56.0"><title>2022-09-15</title></rect><rect fill="#444444" height="2.6" width="2.6" x="139.5" y="59.5"><title>2022-09-16</title></rect><rect fill="#444444" height="2.6" width="2.6" x="139.5" y="63.0"><title>2022-09-17</title></rect><rect fill="#444444" height="2.6" width="2.6" x="139.5" y="66.5"><title>2022-09-18</title></rect><rect fill="#444444" height="2.6" width="2.6" x="143.0" y="45.5"><title>2022-09-19</title></rect><rect fill="#444444" height="2.6" width="2.6" x="143.0" y="49.0"><title>2022-09-20</title></rect><rect fill="#444444" height="2.6" width="2.6" x="143.0" y="52.5"><title>2022-09-21</title></rect><rect fill="#444444" height="2.6" width="2.6" x="143.0" y="56.0"><title>2022-09-22</title></rect><rect fill="#444444" height="2.6" width="2.6" x="143.0" y="59.5"><title>2022-09-23</title></rect><rect fill="#444444" height="2.6" width="2.6" x="143.0" y="63.0"><title>2022-09-24</title></rect><rect fill="#444444" height="2.6" width="2.6" x="143.0" y="66.5"><title>2022-09-25</title></rect><rect fill="#444444" height="2.6" width="2.6" x="146.5" y="45.5"><title>2022-09-26</title></rect><rect fill="#444444" height="2.6" width="2.6" x="146.5" y="49.0"><title>2022-09-27</title></rect><rect fill="#444444" height="2.6" width="2.6" x="146.5" y="52.5"><title>2022-09-28</title></rect><rect fill="#444444" height="2.6" width="2.6" x="146.5" y="56.0"><title>2022-09-29</title></rect><rect fill="#444444" height="2.6" width="2.6" x="146.5" y="59.5"><title>2022-09-30</title></rect><rect fill="#444444" height="2.6" width="2.6" x="146.5" y="63.0"><title>2022-10-01</title></rect><rect fill="#444444" height="2.6" width="2.6" x="146.5" y="66.5"><title>2022-10-02</title></rect><rect fill="#444444" height="2.6" width="2.6" x="150.0" y="45.5"><title>2022-10-03</title></rect><rect fill="#444444" height="2.6" width="2.6" x="150.0" y="49.0"><title>2022-10-04</title></rect><rect fill="#444444" height="2.6" width="2.6" x="150.0" y="52.5"><title>2022-10-05</title></rect><rect fill="#444444" height="2.6" width="2.6" x="150.0" y="56.0"><title>2022-10-06</title></rect><rect fill="#444444" height="2.6" width="2.6" x="150.0" y="59.5"><title>2022-10-07</title></rect><rect fill="#444444" height="2.6" width="2.6" x="150.0" y="63.0"><title>2022-10-08</title></rect><rect fill="#444444" height="2.6" width="2.6" x="150.0" y="66.5"><title>2022-10-09</title></rect><rect fill="#444444" height="2.6" width="2.6" x="153.5" y="45.5"><title>2022-10-10</title></rect><rect fill="#444444" height="2.6" width="2.6" x="153.5" y="49.0"><title>2022-10-11</title></rect><rect fill="#444444" height="2.6" width="2.6" x="153.5" y="52.5"><title>2022-10-12</title></rect><rect fill="#444444" height="2.6" width="2.6" x="153.5" y="56.0"><title>2022-10-13</title></rect><rect fill="#444444" height="2.6" width="2.6" x="153.5" y="59.5"><title>2022-10-14</title></rect><rect fill="#444444" height="2.6" width="2.6" x="153.5" y="63.0"><title>2022-10-15</title></rect><rect fill="#444444" height="2.6" width="2.6" x="153.5" y="66.5"><title>2022-10-16</title></rect><rect fill="#444444" height="2.6" width="2.6" x="157.0" y="45.5"><title>2022-10-17</title></rect><rect fill="#444444" height="2.6" width="2.6" x="157.0" y="49.0"><title>2022-10-18</title></rect><rect fill="#444444" height="2.6" width="2.6" x="157.0" y="52.5"><title>2022-10-19</title></rect><rect fill="#444444" height="2.6" width="2.6" x="157.0" y="56.0"><title>2022-10-20</title></rect><rect fill="#444444" height="2.6" width="2.6" x="157.0" y="59.5"><title>2022-10-21</title></rect><rect fill="#444444" height="2.6" width="2.6" x="157.0" y="63.0"><title>2022-10-22</title></rect><rect fill="#444444" height="2.6" width="2.6" x="157.0" y="66.5"><title>2022-10-23</title></rect><rect fill="#444444" height="2.6" width="2.6" x="160.5" y="45.5"><title>2022-10-24</title></rect><rect fill="#444444" height="2.6" width="2.6" x="160.5" y="49.0"><title>2022-10-25</title></rect><rect fill="#444444" height="2.6" width="2.6" x="160.5" y="52.5"><title>2022-10-26</title></rect><rect fill="#444444" height="2.6" width="2.6" x="160.5" y="56.0"><title>2022-10-27</title></rect><rect fill="#444444" height="2.6" width="2.6" x="160.5" y="59.5"><title>2022-10-28</title></rect><rect fill="#444444" height="2.6" width="2.6" x="160.5" y="63.0"><title>2022-10-29</title></rect><rect fill="#444444" height="2.6" width="2.6" x="160.5" y="66.5"><title>2022-10-30</title></rect><rect fill="#444444" height="2.6" width="2.6" x="164.0" y="45.5"><title>2022-10-31</title></rect><rect fill="#444444" height="2.6" width="2.6" x="164.0" y="49.0"><title>2022-11-01</title></rect><rect fill="#444444" height="2.6" width="2.6" x="164.0" y="52.5"><title>2022-11-02</title></rect><rect fill="#444444" height="2.6" width="2.6" x="164.0" y="56.0"><title>2022-11-03</title></rect><rect fill="#444444" height="2.6" width="2.6" x="164.0" y="59.5"><title>2022-11-04</title></rect><rect fill="#444444" height="2.6" width="2.6" x="164.0" y="63.0"><title>2022-11-05</title></rect><rect fill="#444444" height="2.6" width="2.6" x="164.0" y="66.5"><title>2022-11-06</title></rect><rect fill="#444444" height="2.6" width="2.6" x="167.5" y="45.5"><title>2022-11-07</title></rect><rect fill="#444444" height="2.6" width="2.6" x="167.5" y="49.0"><title>2022-11-08</title></rect><rect fill="#444444" height="2.6" width="2.6" x="167.5" y="52.5"><title>2022-11-09</title></rect><rect fill="#444444" height="2.6" width="2.6" x="167.5" y="56.0"><title>2022-11-10</title></rect><rect fill="#444444" height="2.6" width="2.6" x="167.5" y="59.5"><title>2022-11-11</title></rect><rect fill="#444444" height="2.6" width="2.6" x="167.5" y="63.0"><title>2022-11-12</title></rect><rect fill="#444444" height="2.6" width="2.6" x="167.5" y="66.5"><title>2022-11-13</title></rect><rect fill="#444444" height="2.6" width="2.6" x="171.0" y="45.5"><title>2022-11-14</title></rect><rect fill="#444444" height="2.6" width="2.6" x="171.0" y="49.0"><title>2022-11-15</title></rect><rect fill="#444444" height="2.6" width="2.6" x="171.0" y="52.5"><title>2022-11-16</title></rect><rect fill="#444444" height="2.6" width="2.6" x="171.0" y="56.0"><title>2022-11-17</title></rect><rect fill="#444444" height="2.6" width="2.6" x="171.0" y="59.5"><title>2022-11-18</title></rect><rect fill="#444444" height="2.6" width="2.6" x="171.0" y="63.0"><title>2022-11-19</title></rect><rect fill="#444444" height="2.6" width="2.6" x="171.0" y="66.5"><title>2022-11-20</title></rect><rect fill="#444444" height="2.6" width="2.6" x="174.5" y="45.5"><title>2022-11-21</title></rect><rect fill="#444444" height="2.6" width="2.6" x="174.5" y="49.0"><title>2022-11-22</title></rect><rect fill="#444444" height="2.6" width="2.6" x="174.5" y="52.5"><title>2022-11-23</title></rect><rect fill="#444444" height="2.6" width="2.6" x="174.5" y="56.0"><title>2022-11-24</title></rect><rect fill="#444444" height="2.6" width="2.6" x="174.5" y="59.5"><title>2022-11-25</title></rect><rect fill="#444444" height="2.6" width="2.6" x="174.5" y="63.0"><title>2022-11-26</title></rect><rect fill="#444444" height="2.6" width="2.6" x="174.5" y="66.5"><title>2022-11-27</title></rect><rect fill="#444444" height="2.6" width="2.6" x="178.0" y="45.5"><title>2022-11-28</title></rect><rect fill="#444444" height="2.6" width="2.6" x="178.0" y="49.0"><title>2022-11-29</title></rect><rect fill="#444444" height="2.6" width="2.6" x="178.0" y="52.5"><title>2022-11-30</title></rect><rect fill="#444444" height="2.6" width="2.6" x="178.0" y="56.0"><title>2022-12-01</title></rect><rect fill="#444444" height="2.6" width="2.6" x="178.0" y="59.5"><title>2022-12-02</title></rect><rect fill="#444444" height="2.6" width="2.6" x="178.0" y="63.0"><title>2022-12-03</title></rect><rect fill="#444444" height="2.6" width="2.6" x="178.0" y="66.5"><title>2022-12-04</title></rect><rect fill="#444444" height="2.6" width="2.6" x="181.5" y="45.5"><title>2022-12-05</title></rect><rect fill="#444444" height="2.6" width="2.6" x="181.5" y="49.0"><title>2022-12-06</title></rect><rect fill="#444444" height="2.6" width="2.6" x="181.5" y="52.5"><title>2022-12-07</title></rect><rect fill="#444444" height="2.6" width="2.6" x="181.5" y="56.0"><title>2022-12-08</title></rect><rect fill="#444444" height="2.6" width="2.6" x="181.5" y="59.5"><title>2022-12-09</title></rect><rect fill="#444444" height="2.6" width="2.6" x="181.5" y="63.0"><title>2022-12-10</title></rect><rect fill="#444444" height="2.6" width="2.6" x="181.5" y="66.5"><title>2022-12-11</title></rect><rect fill="#444444" height="2.6" width="2.6" x="185.0" y="45.5"><title>2022-12-12</title></rect><rect fill="#444444" height="2.6" width="2.6" x="185.0" y="49.0"><title>2022-12-13</title></rect><rect fill="#444444" height="2.6" width="2.6" x="185.0" y="52.5"><title>2022-12-14</title></rect><rect fill="#444444" height="2.6" width="2.6" x="185.0" y="56.0"><title>2022-12-15</title></rect><rect fill="#444444" height="2.6" width="2.6" x="185.0" y="59.5"><title>2022-12-16</title></rect><rect fill="#444444" height="2.6" width="2.6" x="185.0" y="63.0"><title>2022-12-17</title></rect><rect fill="#444444" height="2.6" width="2.6" x="185.0" y="66.5"><title>2022-12-18</title></rect><rect fill="#444444" height="2.6" width="2.6" x="188.5" y="45.5"><title>2022-12-19</title></rect><rect fill="#444444" height="2.6" width="2.6" x="188.5" y="49.0"><title>2022-12-20</title></rect><rect fill="#444444" height="2.6" width="2.6" x="188.5" y="52.5"><title>2022-12-21</title></rect><rect fill="#444444" height="2.6" width="2.6" x="188.5" y="56.0"><title>2022-12-22</title></rect><rect fill="#444444" height="2.6" width="2.6" x="188.5" y="59.5"><title>2022-12-23</title></rect><rect fill="#444444" height="2.6" width="2.6" x="188.5" y="63.0"><title>2022-12-24</title></rect><rect fill="#444444" height="2.6" width="2.6" x="188.5" y="66.5"><title>2022-12-25</title></rect><rect fill="#444444" height="2.6" width="2.6" x="192.0" y="45.5"><title>2022-12-26</title></rect><rect fill="#444444" height="2.6" width="2.6" x="192.0" y="49.0"><title>2022-12-27</title></rect><rect fill="#444444" height="2.6" width="2.6" x="192.0" y="52.5"><title>2022-12-28</title></rect><rect fill="#444444" height="2.6" width="2.6" x="192.0" y="56.0"><title>2022-12-29</title></rect><rect fill="#444444" height="2.6" width="2.6" x="192.0" y="59.5"><title>2022-12-30</title></rect><rect fill="#444444" height="2.6" width="2.6" x="192.0" y="63.0"><title>2022-12-31</title></rect></svg>